HIERARCHY
ROOT hip
{
	OFFSET 0.000000 0.000000 0.000000 
	CHANNELS 6 Xposition Yposition Zposition Xrotation Zrotation Yrotation
	JOINT abdomen
	{
		OFFSET 0.000000 3.402643 0.000000 
		CHANNELS 3 Xrotation Zrotation Yrotation
		JOINT chest
		{
			OFFSET 0.000000 8.438565 -0.680529 
			CHANNELS 3 Xrotation Zrotation Yrotation
			JOINT neck
			{
				OFFSET 0.000000 10.207942 -0.272212 
				CHANNELS 3 Xrotation Zrotation Yrotation
				JOINT head
				{
					OFFSET 0.000000 3.130431 0.000000 
					CHANNELS 3 Xrotation Zrotation Yrotation
					End Site
					{
						OFFSET 0.000000 3.130435 0.000000 
					}
				}
			}
			JOINT lCollar
			{
				OFFSET 3.470700 6.669187 -0.816635 
				CHANNELS 3 Yrotation Zrotation Xrotation
				JOINT lShldr
				{
					OFFSET 3.198488 0.000000 0.000000 
					CHANNELS 3 Zrotation Yrotation Xrotation
					JOINT lForeArm
					{
						OFFSET 10.139888 0.000000 0.000000 
						CHANNELS 3 Yrotation Zrotation Xrotation
						JOINT lHand
						{
							OFFSET 8.370511 0.000000 0.000000 
							CHANNELS 3 Zrotation Yrotation Xrotation
							End Site
							{
								OFFSET 4.083176 0.000000 0.000000 
							}
						}
					}
				}
			}
			JOINT rCollar
			{
				OFFSET -3.470700 6.669187 -0.816635 
				CHANNELS 3 Yrotation Zrotation Xrotation
				JOINT rShldr
				{
					OFFSET -3.198488 0.000000 0.000000 
					CHANNELS 3 Zrotation Yrotation Xrotation
					JOINT rForeArm
					{
						OFFSET -10.139888 0.000000 0.000000 
						CHANNELS 3 Yrotation Zrotation Xrotation
						JOINT rHand
						{
							OFFSET -8.370511 0.000000 0.000000 
							CHANNELS 3 Zrotation Yrotation Xrotation
							End Site
							{
								OFFSET -4.083176 0.000000 0.000000 
							}
						}
					}
				}
			}
		}
	}
	JOINT lThigh
	{
		OFFSET 5.308129 -1.633274 1.361059 
		CHANNELS 3 Xrotation Zrotation Yrotation
		JOINT lShin
		{
			OFFSET -2.041588 -20.007561 0.000000 
			CHANNELS 3 Xrotation Zrotation Yrotation
			JOINT lFoot
			{
				OFFSET 0.000000 -19.190928 -1.224953 
				CHANNELS 3 Xrotation Yrotation Zrotation
				End Site
				{
					OFFSET 0.000000 -2.449906 4.627600 
				}
			}
		}
	}
	JOINT rThigh
	{
		OFFSET -5.308129 -1.633274 1.361059 
		CHANNELS 3 Xrotation Zrotation Yrotation
		JOINT rShin
		{
			OFFSET 2.041588 -20.007561 0.000000 
			CHANNELS 3 Xrotation Zrotation Yrotation
			JOINT rFoot
			{
				OFFSET 0.000000 -19.190928 -1.224953 
				CHANNELS 3 Xrotation Yrotation Zrotation
				End Site
				{
					OFFSET 0.000000 -2.449906 4.627600 
				}
			}
		}
	}
}
MOTION
Frames: 16
Frame Time: 0.016667
0.329891 52.600910 0.605566 -10.985521 3.020991 3.716581 24.166309 -0.587100 -0.951260 3.872015 1.278839 -2.226834 -0.265256 5.370728 -0.209695 8.800676 -3.512708 8.824823 -15.906837 -13.021973 -0.680409 -65.543106 14.493010 -29.188292 -23.277809 -5.000000 29.918957 -14.705090 1.715791 2.952078 14.942304 16.630102 -0.884416 61.705425 -6.343345 -17.708282 20.117002 5.000000 17.805988 8.228841 -27.062841 5.645094 17.348505 7.185157 -1.853602 6.517091 -6.185541 -0.985023 -12.599170 6.837637 -1.343117 24.044813 -6.658774 -4.039756 -1.628690 3.403408 -0.015189 -8.024706 -12.453234 3.135913 
0.298120 52.603401 0.583599 -10.979109 3.000992 3.862860 24.205650 -0.544052 -0.954352 3.814374 1.259326 -2.197544 -0.136684 5.431578 -0.198309 8.858778 -3.504254 8.697516 -16.082737 -13.031724 -0.680911 -65.530357 14.520393 -29.165171 -23.323097 -5.000000 29.785034 -14.614462 1.772373 2.918489 15.030195 16.630100 -0.884416 61.701916 -6.399038 -17.723730 20.113504 5.000000 17.868322 8.215322 -27.120184 5.547327 17.356771 7.311409 -1.726514 6.409241 -6.185021 -0.984875 -12.525008 6.552482 -1.482930 24.019064 -6.590847 -3.740704 -1.648819 3.425889 -0.027009 -7.823320 -12.771616 3.157924 
0.257490 52.605644 0.558127 -10.968345 3.029617 4.029160 24.254698 -0.546032 -0.976281 3.785547 1.249569 -2.207313 -0.077336 5.481314 -0.195993 8.865625 -3.495416 8.609794 -16.201731 -12.999744 -0.690739 -65.522392 14.496305 -29.098457 -23.367197 -5.000000 29.627752 -14.533517 1.825020 2.906126 15.110977 16.617804 -0.892944 61.717663 -6.401114 -17.698553 20.104113 5.000000 17.869482 8.252831 -27.167763 5.502208 17.334139 7.402164 -1.646497 6.336737 -6.189823 -0.968039 -12.426048 6.314074 -1.599097 23.971416 -6.513389 -3.569452 -1.636939 3.409575 -0.035568 -7.777577 -13.061902 3.125369 
0.207421 52.607555 0.529065 -10.932714 3.106785 4.225241 24.323345 -0.608783 -1.033591 3.795781 1.239813 -2.226846 -0.077403 5.500625 -0.198912 8.832787 -3.486476 8.531223 -16.259840 -12.960726 -0.688720 -65.521622 14.424822 -28.999187 -23.402399 -5.000000 29.453571 -14.471476 1.883571 2.912494 15.178861 16.588539 -0.891427 61.751282 -6.327868 -17.635645 20.105612 5.000000 17.796640 8.337260 -27.197458 5.524659 17.277910 7.467505 -1.592296 6.243840 -6.187719 -0.911233 -12.284264 5.943414 -1.795707 23.909355 -6.483138 -3.582088 -1.589365 3.431983 -0.032981 -7.885251 -13.195833 3.019064 
0.150662 52.609951 0.496237 -10.905774 3.183836 4.431088 24.402027 -0.667206 -1.099740 3.805336 1.239807 -2.265907 -0.096968 5.510281 -0.200371 8.780391 -3.477526 8.452654 -16.317833 -12.911957 -0.684016 -65.508095 14.341150 -28.884275 -23.437376 -5.000000 29.282114 -14.409729 1.939680 2.909215 15.246744 16.559273 -0.889909 61.782059 -6.254169 -17.549931 20.109781 5.000000 17.704220 8.439607 -27.221102 5.544275 17.223415 7.527561 -1.539617 6.178802 -6.198232 -0.876035 -12.118556 5.636515 -1.937505 23.858459 -6.414217 -3.603536 -1.548610 3.429476 -0.020466 -8.018757 -13.391975 2.879881 
0.087962 52.613510 0.459249 -10.874139 3.270263 4.695448 24.520378 -0.731068 -1.178015 3.814419 1.249558 -2.304964 -0.194590 5.500625 -0.198912 8.684109 -3.459423 8.315602 -16.366299 -12.882693 -0.682507 -65.456070 14.220713 -28.717783 -23.499594 -5.000000 29.116041 -14.399504 1.960228 2.873860 15.233554 16.522833 -0.876079 61.848232 -6.112213 -17.409447 20.131653 5.000000 17.510017 8.530694 -27.155451 5.672973 17.132362 7.624344 -1.467880 6.101748 -6.191674 -0.888086 -11.933574 5.303827 -2.168188 23.799063 -6.326235 -3.759512 -1.493297 3.464180 -0.027351 -8.198033 -13.467652 2.760388 
0.017493 52.617348 0.417830 -10.850320 3.356455 4.979307 24.658403 -0.798331 -1.247461 3.833261 1.259309 -2.334255 -0.293140 5.489511 -0.207999 8.569597 -3.431620 8.178553 -16.405121 -12.863184 -0.681500 -65.393646 14.091861 -28.546921 -23.570404 -5.000000 28.950357 -14.408825 1.981757 2.837838 15.223009 16.474079 -0.873558 61.913322 -5.974725 -17.254465 20.162333 5.000000 17.297136 8.625400 -27.062004 5.803959 17.045914 7.731942 -1.404572 6.029088 -6.165968 -0.939446 -11.699089 5.006397 -2.381460 23.756189 -6.220449 -3.949618 -1.432672 3.479100 -0.023789 -8.419598 -13.544699 2.622907 
-0.061463 52.619656 0.372654 -10.794579 3.442327 5.292994 24.806108 -0.853018 -1.322984 3.851664 1.269047 -2.392839 -0.460898 5.457629 -0.222841 8.441664 -3.432869 8.031751 -16.421923 -12.817183 -0.669853 -65.333336 13.925104 -28.316023 -23.628513 -5.000000 28.736347 -14.408825 1.981757 2.837838 15.202237 16.396065 -0.869525 62.002689 -5.806827 -17.082136 20.193756 5.000000 17.057653 8.671474 -27.012625 5.951455 16.907314 7.858006 -1.336789 5.974858 -6.150375 -0.943223 -11.489284 4.606395 -2.643069 23.665127 -6.111943 -4.180634 -1.375177 3.512352 -0.030551 -8.476365 -13.529436 2.517732 
-0.148703 52.620350 0.323917 -10.704617 3.537430 5.655433 24.953333 -0.898775 -1.395978 3.889645 1.269017 -2.470952 -0.667618 5.406435 -0.234764 8.289584 -3.463033 7.895282 -16.421103 -12.748919 -0.666332 -65.276100 13.711597 -28.029152 -23.662508 -5.000000 28.468273 -14.407660 1.984464 2.887546 15.181320 16.308302 -0.864984 62.127216 -5.601933 -16.903187 20.242210 5.000000 16.807524 8.646817 -27.004843 6.115072 16.704576 7.976570 -1.291230 5.962874 -6.120825 -0.951108 -11.304742 4.293716 -2.848215 23.581249 -5.947369 -4.465264 -1.346774 3.534094 -0.019424 -8.487613 -13.627264 2.327950 
-0.245241 52.621937 0.269290 -10.614462 3.622558 6.018497 25.110769 -0.949660 -1.481608 3.917791 1.278754 -2.549066 -0.875173 5.344126 -0.254845 8.138839 -3.493359 7.738731 -16.422277 -12.668141 -0.671447 -65.217430 13.493843 -27.733900 -23.703295 -5.000000 28.191004 -14.406016 1.996612 2.934811 15.160255 16.210787 -0.859937 62.252380 -5.406608 -16.719774 20.293276 5.000000 16.555555 8.633288 -26.984749 6.259244 16.500746 8.112935 -1.272047 5.921139 -6.106670 -0.956849 -11.084619 3.890970 -3.129563 23.461329 -5.799873 -4.736158 -1.306334 3.528088 -0.026313 -8.443439 -13.659167 2.178965 
-0.350023 52.625610 0.208697 -10.509822 3.716847 6.419940 25.298115 -1.009764 -1.570246 3.936742 1.268966 -2.597886 -1.082721 5.291471 -0.276391 7.913739 -3.524159 7.523698 -16.431337 -12.609627 -0.668428 -65.143631 13.249481 -27.450775 -23.776638 -5.000000 27.932398 -14.400438 2.084297 2.962878 15.149274 16.132776 -0.855898 62.378124 -5.212238 -16.535515 20.395708 5.000000 16.336273 8.608707 -26.928715 6.302592 16.227165 8.249630 -1.282914 5.943787 -6.070763 -0.957383 -10.927463 3.613441 -3.379268 23.321535 -5.614061 -5.027067 -1.256361 3.525140 -0.032623 -8.334272 -13.748062 2.019964 
-0.463175 52.630398 0.142439 -10.403190 3.810723 6.831768 25.495556 -1.062345 -1.677182 3.955624 1.268947 -2.646707 -1.279526 5.230618 -0.287756 7.679705 -3.555014 7.298917 -16.450050 -12.541360 -0.664906 -65.068314 13.000703 -27.159521 -23.856693 -5.000000 27.662149 -14.403523 2.191368 2.985706 15.138147 16.045012 -0.851351 62.505875 -5.031951 -16.354477 20.506252 5.000000 16.125195 8.584286 -26.859194 6.326395 15.965631 8.397217 -1.312444 5.954595 -6.032719 -0.947231 -10.772259 3.266371 -3.639197 23.189550 -5.438993 -5.340508 -1.198487 3.536110 0.010149 -8.220709 -13.818271 1.882697 
-0.586054 52.635235 0.069369 -10.257263 3.884692 7.263098 25.663082 -1.098433 -1.745793 3.973987 1.278681 -2.685976 -1.506263 5.129684 -0.301999 7.447722 -3.576229 7.064393 -16.457386 -12.514871 -0.654253 -64.960907 12.731635 -26.802023 -23.948093 -5.000000 27.360533 -14.382288 2.214087 3.000476 15.107798 15.976750 -0.847815 62.601963 -4.838765 -16.148890 20.634792 5.000000 15.954986 8.597649 -26.814396 6.296064 15.611963 8.562743 -1.368436 5.997908 -5.990544 -0.891821 -10.653507 2.917337 -3.899285 23.002811 -5.243701 -5.680450 -1.139925 3.565623 0.013362 -8.206730 -13.842398 1.742766 
-0.717478 52.640266 -0.009872 -10.062643 3.938758 7.713921 25.839401 -1.126783 -1.780961 3.991898 1.288401 -2.734789 -1.753085 4.988667 -0.320029 7.189547 -3.578084 6.819518 -16.476917 -12.514871 -0.654253 -64.821846 12.441632 -26.378721 -24.080261 -5.000000 26.999317 -14.345594 2.171847 3.002268 15.067686 15.908489 -0.841599 62.677155 -4.634250 -15.928302 20.790615 5.000000 15.811041 8.618370 -26.785614 6.239813 15.191296 8.737672 -1.414110 6.061529 -5.954058 -0.886034 -10.504655 2.519641 -4.170917 22.745550 -5.008952 -6.042063 -1.062882 3.568053 -0.010604 -8.248246 -13.766384 1.687916 
-0.858232 52.645229 -0.093493 -9.877587 3.992555 8.155006 26.006245 -1.155311 -1.815638 4.009465 1.307878 -2.793367 -1.998950 4.849108 -0.328451 6.940636 -3.589646 6.565502 -16.496450 -12.514871 -0.654254 -64.693069 12.146166 -25.958557 -24.199789 -5.000000 26.646845 -14.309599 2.124778 2.984724 15.027729 15.849980 -0.838575 62.742321 -4.428709 -15.696968 20.943878 5.000000 15.683981 8.653628 -26.765875 6.164012 14.750601 8.912389 -1.471109 6.131425 -5.896652 -0.851159 -10.354394 2.189671 -4.451479 22.503155 -4.754920 -6.428564 -1.003198 3.575401 0.003024 -8.316584 -13.755618 1.577239 
-1.010842 52.651573 -0.182115 -9.597383 4.064776 8.645493 26.124321 -1.180124 -1.881900 4.038641 1.278561 -2.832419 -2.255284 4.708088 -0.346507 6.691532 -3.543240 6.261543 -16.495651 -12.446607 -0.650729 -64.611938 11.850392 -25.549635 -24.364271 -5.000000 26.223648 -14.137260 2.117656 2.839674 15.098017 15.798678 -0.847784 62.805229 -4.265918 -15.500049 21.110537 5.000000 15.522472 8.679957 -26.730072 6.163756 14.232517 9.097437 -1.637534 6.178215 -5.875459 -0.874288 -10.286569 2.029058 -4.670430 22.174692 -4.560423 -6.794547 -0.965042 3.625732 -0.015133 -8.417925 -13.707509 1.502385 
